<svg width="57" height="39" viewBox="0 0 57 39" fill="none" xmlns="http://www.w3.org/2000/svg">
<path d="M17.442 28.0647L16.9185 36.6763L39.9506 37L39.3617 28.0647M17.442 28.0647V24.5683M17.442 28.0647H28.4019M39.3617 28.0647V24.5683M39.3617 28.0647H28.4019M34.1926 2.6187L40.8667 4.04317L55 18.3525L48.8494 25.3453L39.3617 16.3453V24.5683M34.1926 2.6187L33.342 1H32.0333M34.1926 2.6187C34.1926 2.6187 31.4798 8.86488 29.9722 12.7842M24.5086 1L22.8728 2.6187M24.5086 1H32.0333M24.5086 1L28.4712 9.54676M22.8728 2.6187L16.4605 4.04317L2 18.3525L8.34691 25.3453L17.442 16.3453V24.5683M22.8728 2.6187L28.1074 14.0144M29.9722 12.7842L35.4358 24.5683M29.9722 12.7842L28.4712 9.54676M32.0333 1L28.4712 9.54676M17.442 24.5683H26.7333M39.3617 24.5683H31.0519M31.0519 24.5683L29.1543 23.9856M31.0519 24.5683H26.7333M31.0519 24.5683L29.9722 25.9928M29.1543 23.9856L26.7333 24.5683M29.1543 23.9856L28.4019 28.0647M26.7333 24.5683V27.2878M26.7333 27.2878L28.4019 28.0647M26.7333 27.2878L22.2185 32.7266L23.7889 34.2806L28.4019 28.0647M28.4019 28.0647L34.1926 34.6043L35.8284 33.4388L29.9722 25.9928M28.4019 28.0647L29.9722 25.9928"  stroke-width="2"/>
</svg>
